<mxfile host="65bd71144e">
    <diagram id="L54uLWEAQPXEzWCLXNP-" name="Page-1">
        <mxGraphModel dx="497" dy="475" grid="1" gridSize="10" guides="1" tooltips="1" connect="1" arrows="1" fold="1" page="1" pageScale="1" pageWidth="850" pageHeight="1100" math="0" shadow="0">
            <root>
                <mxCell id="0"/>
                <mxCell id="1" parent="0"/>
                <mxCell id="13" value="Student" style="swimlane;fontStyle=1;align=center;verticalAlign=top;childLayout=stackLayout;horizontal=1;startSize=26;horizontalStack=0;resizeParent=1;resizeParentMax=0;resizeLast=0;collapsible=1;marginBottom=0;strokeWidth=4;" vertex="1" parent="1">
                    <mxGeometry x="120" y="20" width="470" height="362" as="geometry">
                        <mxRectangle x="80" y="60" width="100" height="30" as="alternateBounds"/>
                    </mxGeometry>
                </mxCell>
                <mxCell id="14" value="- firstName:String&#10;+secondNam:String&#10;+lastName:String&#10;+email:String&#10;+id:int&#10;+year:int&#10;+numberOfAllowChanges:int=3;" style="text;strokeColor=none;fillColor=none;align=left;verticalAlign=top;spacingLeft=4;spacingRight=4;overflow=hidden;rotatable=0;points=[[0,0.5],[1,0.5]];portConstraint=eastwest;strokeWidth=4;fontSize=18;" vertex="1" parent="13">
                    <mxGeometry y="26" width="470" height="184" as="geometry"/>
                </mxCell>
                <mxCell id="15" value="" style="line;strokeWidth=4;fillColor=none;align=left;verticalAlign=middle;spacingTop=-1;spacingLeft=3;spacingRight=3;rotatable=0;labelPosition=right;points=[];portConstraint=eastwest;strokeColor=inherit;" vertex="1" parent="13">
                    <mxGeometry y="210" width="470" height="10" as="geometry"/>
                </mxCell>
                <mxCell id="16" value="+Â generateEmail():void;&#10;+changeFirstName(String newFirstName);&#10;+changeLastName(String newLastName);&#10;+changeSecondName(String newSecondName);" style="text;strokeColor=none;fillColor=none;align=left;verticalAlign=top;spacingLeft=4;spacingRight=4;overflow=hidden;rotatable=0;points=[[0,0.5],[1,0.5]];portConstraint=eastwest;strokeWidth=4;fontSize=18;" vertex="1" parent="13">
                    <mxGeometry y="220" width="470" height="142" as="geometry"/>
                </mxCell>
            </root>
        </mxGraphModel>
    </diagram>
</mxfile>